<?xml version="1.0" encoding="UTF-8"?>
<svg width="28px" height="28px" viewBox="0 0 28 28" version="1.1" xmlns="http://www.w3.org/2000/svg" xmlns:xlink="http://www.w3.org/1999/xlink">
    <!-- Generator: Sketch 63.1 (92452) - https://sketch.com -->
    <title>Path</title>
    <desc>Created with Sketch.</desc>
    <g id="Instructor-View" stroke="none" stroke-width="1" fill="none" fill-rule="evenodd">
        <g id="I---1-Instructor-New-Classroom" transform="translate(-981.000000, -220.000000)" fill="#000000" fill-rule="nonzero">
            <g id="times-light-(1)" transform="translate(981.000000, 220.000000)">
                <path d="M16.9702803,14.0004375 L25.9445608,5.02615707 L27.7952436,3.17547423 C28.0682521,2.9024657 28.0682521,2.45882684 27.7952436,2.18581831 L25.8150567,0.205631426 C25.5420482,-0.0673771055 25.0984093,-0.0673771055 24.8254008,0.205631426 L14.0004375,11.0305947 L3.17547423,0.204756399 C2.9024657,-0.0682521329 2.45882684,-0.0682521329 2.18581831,0.204756399 L0.204756399,2.18494328 C-0.0682521329,2.45795181 -0.0682521329,2.90159067 0.204756399,3.17459921 L11.0305947,14.0004375 L0.204756399,24.8254008 C-0.0682521329,25.0984093 -0.0682521329,25.5420482 0.204756399,25.8150567 L2.18494328,27.7952436 C2.45795181,28.0682521 2.90159067,28.0682521 3.17459921,27.7952436 L14.0004375,16.9702803 L22.974718,25.9445608 L24.8254008,27.7952436 C25.0984093,28.0682521 25.5420482,28.0682521 25.8150567,27.7952436 L27.7952436,25.8150567 C28.0682521,25.5420482 28.0682521,25.0984093 27.7952436,24.8254008 L16.9702803,14.0004375 Z" id="Path"></path>
            </g>
        </g>
    </g>
</svg>