<?xml version="1.0" encoding="UTF-8"?>
<svg width="38px" height="38px" viewBox="0 0 38 38" version="1.1" xmlns="http://www.w3.org/2000/svg" xmlns:xlink="http://www.w3.org/1999/xlink">
    <!-- Generator: Sketch 63.1 (92452) - https://sketch.com -->
    <title>Group</title>
    <desc>Created with Sketch.</desc>
    <g id="Instructor-View" stroke="none" stroke-width="1" fill="none" fill-rule="evenodd">
        <g id="I---1-Instructor-Home" transform="translate(-118.000000, -382.000000)">
            <g id="Group-6-Copy-10" transform="translate(98.000000, 366.000000)">
                <g id="Group" transform="translate(20.000000, 16.000000)">
                    <circle id="Oval" fill="#01A9D9" cx="19" cy="19" r="19"></circle>
                    <g id="play-solid" transform="translate(7.000000, 11.000000)" fill="#FFFFFF" fill-rule="nonzero">
                        <g id="sign-in-regular">
                            <path d="M18.375,16.5 L14.765625,16.5 C14.4820313,16.5 14.25,16.275 14.25,16 L14.25,15 C14.25,14.725 14.4820313,14.5 14.765625,14.5 L18.375,14.5 C19.5136719,14.5 20.4375,13.6041667 20.4375,12.5 L20.4375,4.5 C20.4375,3.39583333 19.5136719,2.5 18.375,2.5 L14.765625,2.5 C14.4820313,2.5 14.25,2.275 14.25,2 L14.25,1 C14.25,0.725 14.4820313,0.5 14.765625,0.5 L18.375,0.5 C20.6523438,0.5 22.5,2.29166667 22.5,4.5 L22.5,12.5 C22.5,14.7083333 20.6523438,16.5 18.375,16.5 Z M7.68007813,1.3125 L6.83789063,2.12916667 C6.63164063,2.32916667 6.6359375,2.65 6.84648438,2.84166667 L11.70625,7.41666667 L1.015625,7.41666667 C0.73203125,7.41666667 0.5,7.64166667 0.5,7.91666667 L0.5,9.08333333 C0.5,9.35833333 0.73203125,9.58333333 1.015625,9.58333333 L11.70625,9.58333333 L6.84648438,14.1541667 C6.64023438,14.35 6.6359375,14.6708333 6.83789063,14.8666667 L7.68007813,15.6833333 C7.88203125,15.8791667 8.20859375,15.8791667 8.41054688,15.6833333 L15.4746094,8.85 C15.6765625,8.65416667 15.6765625,8.3375 15.4746094,8.14166667 L8.41054688,1.30833333 C8.20859375,1.11666667 7.88203125,1.11666667 7.68007813,1.3125 Z" id="Shape"></path>
                        </g>
                    </g>
                </g>
            </g>
        </g>
    </g>
</svg>