<?xml version="1.0" encoding="UTF-8"?>
<svg width="24px" height="24px" viewBox="0 0 24 24" version="1.1" xmlns="http://www.w3.org/2000/svg" xmlns:xlink="http://www.w3.org/1999/xlink">
    <!-- Generator: Sketch 63.1 (92452) - https://sketch.com -->
    <title>link-regular</title>
    <desc>Created with Sketch.</desc>
    <g id="Instructor-View" stroke="none" stroke-width="1" fill="none" fill-rule="evenodd">
        <g id="I---1-Instructor-Home" transform="translate(-605.000000, -390.000000)" fill="#000000" fill-rule="nonzero">
            <g id="link-regular" transform="translate(605.000000, 390.000000)">
                <path d="M14.729154,9.27094152 C17.1240452,11.6658286 17.2780765,15.4718855 15.1861853,18.0440536 C14.8935915,18.4063968 15.0556853,18.2252252 11.2046219,22.0762352 C8.64074626,24.6401064 4.4890265,24.6424033 1.92383838,22.0762352 C-0.640740368,19.5126452 -0.641818494,15.3611669 1.92383838,12.7954676 C3.46007313,11.2592355 4.35360459,10.3627055 4.89613597,9.82092508 C5.24596418,9.4716131 5.84915183,9.7105815 5.85641746,10.2049245 C5.86513957,10.8023688 5.93974714,11.3970275 6.07888626,11.9781094 C6.12416752,12.1669685 6.06613626,12.3657182 5.92879247,12.5030149 L3.77962008,14.6517148 C2.24422908,16.1880407 2.23804158,18.6778964 3.77962008,20.2204566 C5.31594857,21.755845 7.80580855,21.7620325 9.34837143,20.2204566 L12.8729035,16.6954618 C14.4065602,15.1614797 14.4093258,12.6636084 12.8729035,11.1271888 C12.5616618,10.8153828 12.200139,10.5582099 11.803497,10.3664555 C11.5867938,10.2617838 11.4668407,10.0266123 11.4959501,9.78773763 C11.5595126,9.26639465 11.7910751,8.76187977 12.1904034,8.36250536 L12.3954815,8.15742753 C12.5654035,7.98745903 12.8256535,7.9420841 13.0404817,8.04989644 C13.64981,8.35570849 14.2211226,8.76291102 14.729154,9.27094152 Z M22.0761558,1.92376484 C19.5109676,-0.642403254 15.3592479,-0.640106383 12.7953723,1.92376484 C8.94430883,5.77482167 9.10640262,5.59360319 8.8138088,5.9559464 C6.72191767,8.52811449 6.87594895,12.3341714 9.27084016,14.7290585 C9.77887153,15.237089 10.3501842,15.6442915 10.9595124,15.9501036 C11.1742937,16.0579159 11.4345438,16.0124941 11.6045126,15.8425725 L11.8095908,15.6374946 C12.2089659,15.2381671 12.4404816,14.7336053 12.5040441,14.2122624 C12.5331534,13.9733877 12.4132003,13.7382162 12.1964971,13.6335445 C11.7998478,13.4418024 11.4383231,13.1846281 11.1270906,12.8728112 C9.59066836,11.3363916 9.59343399,8.83852028 11.1270906,7.30453817 L14.6516227,3.77954336 C16.1941856,2.2379675 18.6840456,2.24415499 20.2203741,3.77954336 C21.7619526,5.32210359 21.7557651,7.81195929 20.2203741,9.34828516 L18.0712485,11.497032 C17.9339048,11.6343287 17.8758735,11.8330784 17.9211548,12.0219375 C18.0602939,12.6030194 18.1349014,13.197678 18.1436236,13.7951224 C18.1508892,14.2894654 18.7540768,14.5284338 19.103905,14.1791218 C19.6464364,13.6373413 20.5399679,12.7408114 22.0762026,11.2045793 C24.6418126,8.63887995 24.6407345,4.48740169 22.0761558,1.92376484 L22.0761558,1.92376484 Z" id="Shape"></path>
            </g>
        </g>
    </g>
</svg>