<?xml version="1.0" encoding="UTF-8"?>
<svg width="213px" height="28px" viewBox="0 0 213 28" version="1.1" xmlns="http://www.w3.org/2000/svg" xmlns:xlink="http://www.w3.org/1999/xlink">
    <!-- Generator: Sketch 63.1 (92452) - https://sketch.com -->
    <title>MUSIC/CONNECT</title>
    <desc>Created with Sketch.</desc>
    <g id="Student-View" stroke="none" stroke-width="1" fill="none" fill-rule="evenodd">
        <g id="C---1-Student-Classroom" transform="translate(-36.000000, -31.000000)" fill="#343434" fill-rule="nonzero">
            <path d="M39.92,54 L39.92,42.36 L44.216,54 L47.144,54 L51.44,42.312 L51.44,54 L54.8,54 L54.8,37.248 L50.72,37.248 L45.728,49.848 L40.64,37.248 L36.536,37.248 L36.536,54 L39.92,54 Z M65.672,54.168 C66.984,54.168 68.156,53.904 69.188,53.376 C70.22,52.848 71.028,52.044 71.612,50.964 C72.196,49.884 72.488,48.56 72.488,46.992 L72.488,46.992 L72.488,37.056 L69.128,37.056 L69.128,46.992 C69.128,48.32 68.836,49.316 68.252,49.98 C67.668,50.644 66.832,50.976 65.744,50.976 C64.64,50.976 63.796,50.644 63.212,49.98 C62.628,49.316 62.336,48.32 62.336,46.992 L62.336,46.992 L62.336,37.056 L58.976,37.056 L58.976,46.992 C58.976,49.344 59.584,51.128 60.8,52.344 C62.016,53.56 63.64,54.168 65.672,54.168 Z M82.64,54.168 C83.856,54.168 84.888,53.948 85.736,53.508 C86.584,53.068 87.224,52.484 87.656,51.756 C88.088,51.028 88.304,50.232 88.304,49.368 C88.304,48.28 88.064,47.4 87.584,46.728 C87.104,46.056 86.524,45.552 85.844,45.216 C85.164,44.88 84.28,44.52 83.192,44.136 C82.408,43.88 81.788,43.648 81.332,43.44 C80.876,43.232 80.5,42.964 80.204,42.636 C79.908,42.308 79.76,41.896 79.76,41.4 C79.76,40.776 79.952,40.3 80.336,39.972 C80.72,39.644 81.224,39.48 81.848,39.48 C82.568,39.48 83.136,39.676 83.552,40.068 C83.968,40.46 84.224,40.96 84.32,41.568 L84.32,41.568 L87.968,41.568 C87.824,40.128 87.22,38.976 86.156,38.112 C85.092,37.248 83.664,36.816 81.872,36.816 C80.144,36.816 78.756,37.236 77.708,38.076 C76.66,38.916 76.136,40.064 76.136,41.52 C76.136,42.576 76.372,43.432 76.844,44.088 C77.316,44.744 77.888,45.244 78.56,45.588 C79.232,45.932 80.096,46.28 81.152,46.632 C81.968,46.904 82.608,47.144 83.072,47.352 C83.536,47.56 83.92,47.836 84.224,48.18 C84.528,48.524 84.68,48.96 84.68,49.488 C84.68,50.08 84.492,50.564 84.116,50.94 C83.74,51.316 83.2,51.504 82.496,51.504 C81.712,51.504 81.084,51.276 80.612,50.82 C80.14,50.364 79.864,49.792 79.784,49.104 L79.784,49.104 L76.184,49.104 C76.264,50.128 76.588,51.024 77.156,51.792 C77.724,52.56 78.48,53.148 79.424,53.556 C80.368,53.964 81.44,54.168 82.64,54.168 Z M95.384,54 L95.384,37.056 L92,37.056 L92,54 L95.384,54 Z M107.312,54.144 C109.424,54.144 111.176,53.6 112.568,52.512 C113.96,51.424 114.88,49.944 115.328,48.072 L115.328,48.072 L111.776,48.072 C111.408,48.984 110.836,49.704 110.06,50.232 C109.284,50.76 108.352,51.024 107.264,51.024 C106.368,51.024 105.56,50.8 104.84,50.352 C104.12,49.904 103.56,49.264 103.16,48.432 C102.76,47.6 102.56,46.632 102.56,45.528 C102.56,44.408 102.76,43.432 103.16,42.6 C103.56,41.768 104.12,41.128 104.84,40.68 C105.56,40.232 106.368,40.008 107.264,40.008 C108.352,40.008 109.284,40.272 110.06,40.8 C110.836,41.328 111.408,42.048 111.776,42.96 L111.776,42.96 L115.328,42.96 C114.88,41.088 113.96,39.608 112.568,38.52 C111.176,37.432 109.424,36.888 107.312,36.888 C105.68,36.888 104.248,37.252 103.016,37.98 C101.784,38.708 100.828,39.728 100.148,41.04 C99.468,42.352 99.128,43.848 99.128,45.528 C99.128,47.192 99.468,48.68 100.148,49.992 C100.828,51.304 101.788,52.324 103.028,53.052 C104.268,53.78 105.696,54.144 107.312,54.144 Z M119.816,58.104 L126.392,31.392 L124.256,31.392 L117.704,58.104 L119.816,58.104 Z M136.928,54.144 C138.992,54.144 140.696,53.636 142.04,52.62 C143.384,51.604 144.312,50.216 144.824,48.456 L144.824,48.456 L142.52,48.456 C142.088,49.576 141.392,50.468 140.432,51.132 C139.472,51.796 138.296,52.128 136.904,52.128 C135.8,52.128 134.812,51.86 133.94,51.324 C133.068,50.788 132.38,50.024 131.876,49.032 C131.372,48.04 131.12,46.88 131.12,45.552 C131.12,44.208 131.372,43.036 131.876,42.036 C132.38,41.036 133.068,40.268 133.94,39.732 C134.812,39.196 135.8,38.928 136.904,38.928 C138.296,38.928 139.472,39.26 140.432,39.924 C141.392,40.588 142.088,41.48 142.52,42.6 L142.52,42.6 L144.824,42.6 C144.312,40.84 143.384,39.452 142.04,38.436 C140.696,37.42 138.992,36.912 136.928,36.912 C135.344,36.912 133.944,37.276 132.728,38.004 C131.512,38.732 130.564,39.752 129.884,41.064 C129.204,42.376 128.864,43.872 128.864,45.552 C128.864,47.216 129.204,48.7 129.884,50.004 C130.564,51.308 131.512,52.324 132.728,53.052 C133.944,53.78 135.344,54.144 136.928,54.144 Z M156.704,54.192 C158.272,54.192 159.684,53.824 160.94,53.088 C162.196,52.352 163.184,51.324 163.904,50.004 C164.624,48.684 164.984,47.192 164.984,45.528 C164.984,43.864 164.624,42.372 163.904,41.052 C163.184,39.732 162.196,38.704 160.94,37.968 C159.684,37.232 158.272,36.864 156.704,36.864 C155.136,36.864 153.716,37.232 152.444,37.968 C151.172,38.704 150.176,39.732 149.456,41.052 C148.736,42.372 148.376,43.864 148.376,45.528 C148.376,47.192 148.736,48.684 149.456,50.004 C150.176,51.324 151.172,52.352 152.444,53.088 C153.716,53.824 155.136,54.192 156.704,54.192 Z M156.704,52.152 C155.536,52.152 154.492,51.884 153.572,51.348 C152.652,50.812 151.932,50.04 151.412,49.032 C150.892,48.024 150.632,46.856 150.632,45.528 C150.632,44.184 150.892,43.012 151.412,42.012 C151.932,41.012 152.652,40.244 153.572,39.708 C154.492,39.172 155.536,38.904 156.704,38.904 C157.856,38.904 158.892,39.172 159.812,39.708 C160.732,40.244 161.452,41.012 161.972,42.012 C162.492,43.012 162.752,44.184 162.752,45.528 C162.752,46.856 162.492,48.02 161.972,49.02 C161.452,50.02 160.732,50.792 159.812,51.336 C158.892,51.88 157.856,52.152 156.704,52.152 Z M171.32,54 L171.32,40.632 L180.104,54 L182.288,54 L182.288,37.08 L180.104,37.08 L180.104,50.472 L171.32,37.08 L169.136,37.08 L169.136,54 L171.32,54 Z M189.176,54 L189.176,40.632 L197.96,54 L200.144,54 L200.144,37.08 L197.96,37.08 L197.96,50.472 L189.176,37.08 L186.992,37.08 L186.992,54 L189.176,54 Z M214.184,54 L214.184,52.224 L207.032,52.224 L207.032,46.32 L213.464,46.32 L213.464,44.64 L207.032,44.64 L207.032,38.856 L214.184,38.856 L214.184,37.08 L204.848,37.08 L204.848,54 L214.184,54 Z M225.68,54.144 C227.744,54.144 229.448,53.636 230.792,52.62 C232.136,51.604 233.064,50.216 233.576,48.456 L233.576,48.456 L231.272,48.456 C230.84,49.576 230.144,50.468 229.184,51.132 C228.224,51.796 227.048,52.128 225.656,52.128 C224.552,52.128 223.564,51.86 222.692,51.324 C221.82,50.788 221.132,50.024 220.628,49.032 C220.124,48.04 219.872,46.88 219.872,45.552 C219.872,44.208 220.124,43.036 220.628,42.036 C221.132,41.036 221.82,40.268 222.692,39.732 C223.564,39.196 224.552,38.928 225.656,38.928 C227.048,38.928 228.224,39.26 229.184,39.924 C230.144,40.588 230.84,41.48 231.272,42.6 L231.272,42.6 L233.576,42.6 C233.064,40.84 232.136,39.452 230.792,38.436 C229.448,37.42 227.744,36.912 225.68,36.912 C224.096,36.912 222.696,37.276 221.48,38.004 C220.264,38.732 219.316,39.752 218.636,41.064 C217.956,42.376 217.616,43.872 217.616,45.552 C217.616,47.216 217.956,48.7 218.636,50.004 C219.316,51.308 220.264,52.324 221.48,53.052 C222.696,53.78 224.096,54.144 225.68,54.144 Z M243.296,54 L243.296,38.856 L248.072,38.856 L248.072,37.08 L236.336,37.08 L236.336,38.856 L241.112,38.856 L241.112,54 L243.296,54 Z" id="MUSIC/CONNECT"></path>
        </g>
    </g>
</svg>