<?xml version="1.0" encoding="UTF-8"?>
<svg width="24px" height="24px" viewBox="0 0 24 24" version="1.1" xmlns="http://www.w3.org/2000/svg" xmlns:xlink="http://www.w3.org/1999/xlink">
    <!-- Generator: Sketch 63.1 (92452) - https://sketch.com -->
    <title>Path</title>
    <desc>Created with Sketch.</desc>
    <g id="Instructor-View" stroke="none" stroke-width="1" fill="none" fill-rule="evenodd">
        <g id="I---1-Instructor-Active-Classroom" transform="translate(-963.000000, -857.000000)" fill="#FFFFFF" fill-rule="nonzero">
            <g id="undo-light" transform="translate(963.000000, 857.000000)">
                <path d="M0.580644803,0 L1.06451547,0 C1.38517656,0 1.64516028,0.259995214 1.64516028,0.580656351 L1.64516028,5.93347637 C3.73528802,2.37325227 7.60833402,-0.0137788485 12.0383635,0 C18.6377304,0.020721135 24.0102916,5.4197992 24,12.019167 C23.9896304,18.6377929 18.6209885,24 12,24 C8.90680096,24 6.08699625,22.8296618 3.95912659,20.9076789 C3.71172352,20.6842274 3.70006223,20.2998889 3.93580402,20.064147 L4.2778522,19.7220988 C4.49573916,19.5042118 4.84635185,19.4940022 5.07536784,19.7001311 C6.90880219,21.3502271 9.33555876,22.3548395 12,22.3548395 C17.6972794,22.3548395 22.3548249,17.7420514 22.3548249,12 C22.3548249,6.30271813 17.7420374,1.64517197 12,1.64517197 C7.99054346,1.64517197 4.51272302,3.92309024 2.79246602,7.25807252 L8.32257551,7.25807252 C8.6432366,7.25807252 8.90322031,7.51805626 8.90322031,7.8387174 L8.90322031,8.32258814 C8.90322031,8.64324927 8.6432366,8.90323302 8.32257551,8.90323302 L0.580644803,8.90323302 C0.259983711,8.90323302 0,8.64324927 0,8.32258814 L0,0.580656351 C0,0.259995214 0.259983711,0 0.580644803,0 Z" id="Path"></path>
            </g>
        </g>
    </g>
</svg>