<?xml version="1.0" encoding="UTF-8"?>
<svg width="21px" height="24px" viewBox="0 0 21 24" version="1.1" xmlns="http://www.w3.org/2000/svg" xmlns:xlink="http://www.w3.org/1999/xlink">
    <!-- Generator: Sketch 63.1 (92452) - https://sketch.com -->
    <title>trash-solid</title>
    <desc>Created with Sketch.</desc>
    <g id="Instructor-View" stroke="none" stroke-width="1" fill="none" fill-rule="evenodd">
        <g id="I---1-Instructor-Home" transform="translate(-646.000000, -769.000000)" fill="#AF0000" fill-rule="nonzero">
            <g id="trash-solid" transform="translate(646.000000, 769.000000)">
                <path d="M20.1242236,1.50000818 L14.5341615,1.50000818 L14.0962733,0.623453515 C13.9070696,0.241208185 13.5191026,-0.000289832216 13.0947205,8.17983084e-06 L7.77018634,8.17983084e-06 C7.34660235,-0.00162207397 6.95936711,0.240546808 6.77329193,0.623453515 L6.33540373,1.50000818 L0.745341615,1.50000818 C0.333700808,1.50000818 0,1.83580162 0,2.2500149 L0,3.75001387 C0,4.16422715 0.333700808,4.50000818 0.745341615,4.50000818 L20.1242236,4.50000818 C20.5358644,4.50000818 20.8695652,4.16422715 20.8695652,3.75001387 L20.8695652,2.2500149 C20.8695652,1.83580162 20.5358644,1.50000818 20.1242236,1.50000818 Z M2.47826087,21.8906264 C2.55204504,23.0762285 3.52908049,24 4.70962733,24 L16.1599379,24 C17.3404847,24 18.3175202,23.0762285 18.3913043,21.8906264 L19.378882,6.00001233 L1.49068323,6.00001233 L2.47826087,21.8906264 Z" id="Shape"></path>
            </g>
        </g>
    </g>
</svg>